<?xml version="1.0" encoding="UTF-8"?>
<svg width="278" height="151.22" version="1.1" viewBox="0 0 278 151.22" xml:space="preserve" xmlns="http://www.w3.org/2000/svg"><g transform="matrix(2.056 0 0 2.056 -72.756 85.714)"><path d="m108.12 30.653c0 0.73-0.366 1.094-1.099 1.094-0.704 0-1.07-0.365-1.07-1.094l0.028-8.645c0-0.899-0.309-1.657-0.958-2.302-0.57-0.589-1.368-0.955-2.252-0.955-0.02 0-0.04 0-0.061 1e-3h3e-3c-0.9 0-1.661 0.309-2.309 0.955-0.59 0.567-0.957 1.363-0.957 2.245 0 0.02 0 0.04 1e-3 0.06v-3e-3l-0.029 8.645c0 0.73-0.366 1.094-1.099 1.094-0.704 0-1.07-0.365-1.07-1.094l0.029-8.645c0-0.899-0.309-1.657-0.958-2.302-0.647-0.646-1.408-0.955-2.282-0.955-0.9 0-1.661 0.309-2.309 0.955-0.59 0.567-0.957 1.363-0.957 2.245 0 0.02 0 0.04 1e-3 0.06v-3e-3l-0.029 8.645c0 0.73-0.366 1.094-1.099 1.094-0.732 0-1.07-0.365-1.07-1.094l0.029-12.969c0-0.702 0.366-1.067 1.099-1.067 0.732 0 1.099 0.365 1.099 1.094 0.957-0.73 2.027-1.067 3.266-1.067 1.803 0 3.238 0.73 4.309 2.19 1.099-1.431 2.534-2.161 4.336-2.161 1.493 0 2.761 0.533 3.83 1.6s1.578 2.33 1.578 3.818zm17.067-6.457c0 2.106-0.761 3.874-2.253 5.362-1.493 1.487-3.267 2.217-5.379 2.217-2.084 0-3.887-0.757-5.351-2.217-1.493-1.488-2.225-3.285-2.225-5.362s0.761-3.873 2.254-5.333c1.492-1.488 3.266-2.218 5.378-2.218 2.084 0 3.887 0.757 5.351 2.219 1.493 1.459 2.225 3.255 2.225 5.333zm-2.169 0c0-1.488-0.535-2.751-1.578-3.818-1.07-1.067-2.337-1.6-3.829-1.6-1.493 0-2.788 0.533-3.83 1.572-1.071 1.067-1.605 2.33-1.605 3.818s0.534 2.779 1.577 3.818c1.071 1.067 2.338 1.6 3.83 1.6 1.493 0 2.788-0.533 3.829-1.572 1.071-1.067 1.606-2.33 1.606-3.818zm19.292 0.057c0 2.106-0.761 3.873-2.225 5.361-1.493 1.488-3.267 2.219-5.379 2.219-2.084 0-3.858-0.758-5.351-2.219-1.465-1.488-2.224-3.255-2.197-5.361l0.029-12.885c0-0.729 0.367-1.093 1.099-1.093 0.704 0 1.07 0.365 1.07 1.094l-0.028 7.579c1.493-1.515 3.295-2.273 5.436-2.273 2.112 0 3.886 0.757 5.379 2.218 1.436 1.487 2.169 3.255 2.169 5.361zm-2.168-0.028c0-1.488-0.535-2.752-1.578-3.819-1.07-1.067-2.337-1.6-3.829-1.6-1.493 0-2.761 0.533-3.831 1.572-1.07 1.067-1.604 2.33-1.604 3.819 0 1.487 0.534 2.778 1.577 3.817 1.07 1.067 2.337 1.6 3.802 1.6 1.493 0 2.761-0.533 3.83-1.572 1.099-1.038 1.634-2.33 1.634-3.817zm15.489 6.54c0 0.73-0.366 1.094-1.099 1.094-1.183 0-2.197-0.42-3.041-1.291-0.782-0.762-1.268-1.826-1.268-3.003v-0.061 3e-3l0.028-16.196c0-0.73 0.366-1.094 1.099-1.094 0.704 0 1.07 0.365 1.07 1.094l-0.028 16.196c0 0.59 0.224 1.095 0.647 1.545 0.422 0.421 0.929 0.645 1.521 0.645 0.704 0 1.07 0.365 1.07 1.067zm14.898-3.228c0 0.169-0.057 0.365-0.141 0.561-0.619 1.152-1.521 2.049-2.759 2.752-1.239 0.672-2.507 1.038-3.83 1.009-2.084 0-3.887-0.757-5.351-2.218-1.493-1.487-2.225-3.283-2.225-5.361 0-2.077 0.761-3.873 2.254-5.333 1.492-1.488 3.266-2.218 5.379-2.218 0.732 0 1.52 0.141 2.337 0.421 0.929 0.309 1.83 0.843 2.704 1.516 1.099 0.87 1.661 1.684 1.661 2.443 0 0.393-0.169 0.673-0.534 0.869l-10.251 5.867c1.069 1.235 2.421 1.824 4.054 1.853 1.717 0 3.07-0.618 4.084-1.853 0.141-0.196 0.337-0.477 0.619-0.843 0.282-0.364 0.592-0.561 0.901-0.561s0.563 0.113 0.789 0.309c0.196 0.253 0.309 0.506 0.309 0.786zm-2.675-6.794c-1.071-1.235-2.421-1.852-4.055-1.852-1.493 0-2.761 0.533-3.83 1.571-1.07 1.067-1.605 2.33-1.605 3.819 0 0.589 0.085 1.178 0.282 1.739l9.21-5.277z" fill="white"/><path d="m147.32 15.972c0 0.448-0.169 0.814-0.479 1.122-0.337 0.309-0.704 0.478-1.154 0.478-0.451 0-0.845-0.169-1.155-0.478-0.295-0.288-0.478-0.69-0.478-1.135v-0.017 1e-3c0-0.448 0.169-0.843 0.478-1.151 0.338-0.309 0.704-0.477 1.155-0.477 0.45 0 0.845 0.169 1.154 0.477 0.338 0.337 0.48 0.731 0.48 1.18z" fill="white"/><path d="m145.68 19.088c-0.394 0-0.787-0.085-1.125-0.196l-0.029 11.845c0 0.73 0.367 1.094 1.071 1.094 0.732 0 1.07-0.365 1.099-1.094l0.028-11.819c-0.309 0.108-0.665 0.17-1.035 0.17h-8e-3z" fill="white"/></g><g transform="matrix(3.247 0 0 3.247 -.54225 -.45783)" fill="white"><path d="m28.304 4.407c-3.746-0.309-6.816 1.234-9.097 4.603-2.282-3.369-5.351-4.912-9.097-4.603-2.901 0.252-5.295 1.347-7.07 3.255-1.915 2.022-2.873 4.745-2.873 8.057v15.467h4.224v-15.86c0-1.965 0.564-3.648 1.634-4.996 1.07-1.347 2.479-2.02 4.309-2.02s3.435 0.619 4.787 1.797c1.324 1.179 2 2.667 2 4.435v16.645h4.253v-16.646c0-1.769 0.675-3.257 1.999-4.435 1.324-1.18 2.929-1.797 4.788-1.797 1.83 0 3.238 0.674 4.365 2.05 1.099 1.375 1.69 3.059 1.69 4.967v15.86h4.224v-15.467c0-3.312-0.985-6.035-2.928-8.057-1.916-1.909-4.309-3.004-7.211-3.255zm32.302 0.281c-3.407 0-6.251 1.151-8.505 3.453-2.253 2.273-3.379 5.193-3.379 8.645v14.371h4.083v-14.736c0-2.106 0.789-3.93 2.337-5.446 1.55-1.515 3.408-2.301 5.492-2.301 2.055 0 3.886 0.757 5.436 2.301 1.549 1.517 2.337 3.369 2.337 5.446v14.736h4.083v-14.371c0-3.453-1.126-6.345-3.379-8.645-2.282-2.274-5.125-3.453-8.506-3.453zm25.065 7.298v-3.845h-6.055v-8h-4.083v23.214c0 5.557 3.323 8.393 9.828 8.393h0.309v-3.481h-0.309c-3.886 0-5.745-1.796-5.745-5.502v-10.751z"/><path d="m46.3 5.583c2e-3 1.473-1.195 2.668-2.672 2.669s-2.676-1.191-2.678-2.664 1.195-2.668 2.672-2.669 2.676 1.191 2.678 2.664z"/><path d="m43.625 10.582c-0.761 0-1.493-0.169-2.141-0.477v21.081h4.083v-20.996c-0.567 0.248-1.228 0.393-1.922 0.393h-0.021 1e-3z"/></g></svg>
