<svg xmlns="http://www.w3.org/2000/svg" xmlns:xlink="http://www.w3.org/1999/xlink" width="500" zoomAndPan="magnify" viewBox="0 0 375 374.999991" height="500" preserveAspectRatio="xMidYMid meet" version="1.2"><defs><clipPath id="6244d82f99"><path d="M 187.5 0 C 83.945312 0 0 83.945312 0 187.5 C 0 291.054688 83.945312 375 187.5 375 C 291.054688 375 375 291.054688 375 187.5 C 375 83.945312 291.054688 0 187.5 0 Z M 187.5 0 "/></clipPath><linearGradient x1="-0" gradientTransform="matrix(1.464844,0,0,1.464844,0.0000045,-0)" y1="128" x2="255.999988" gradientUnits="userSpaceOnUse" y2="128" id="04a996dac8"><stop style="stop-color:#5271ff;stop-opacity:1;" offset="0"/><stop style="stop-color:#5271ff;stop-opacity:1;" offset="0.0078125"/><stop style="stop-color:#5371ff;stop-opacity:1;" offset="0.015625"/><stop style="stop-color:#5470ff;stop-opacity:1;" offset="0.0234375"/><stop style="stop-color:#5470ff;stop-opacity:1;" offset="0.03125"/><stop style="stop-color:#5570ff;stop-opacity:1;" offset="0.0390625"/><stop style="stop-color:#5570ff;stop-opacity:1;" offset="0.046875"/><stop style="stop-color:#566fff;stop-opacity:1;" offset="0.0546875"/><stop style="stop-color:#576fff;stop-opacity:1;" offset="0.0625"/><stop style="stop-color:#576fff;stop-opacity:1;" offset="0.0703125"/><stop style="stop-color:#586fff;stop-opacity:1;" offset="0.078125"/><stop style="stop-color:#586eff;stop-opacity:1;" offset="0.0859375"/><stop style="stop-color:#596eff;stop-opacity:1;" offset="0.09375"/><stop style="stop-color:#5a6eff;stop-opacity:1;" offset="0.101562"/><stop style="stop-color:#5a6eff;stop-opacity:1;" offset="0.109375"/><stop style="stop-color:#5b6dff;stop-opacity:1;" offset="0.117188"/><stop style="stop-color:#5b6dff;stop-opacity:1;" offset="0.125"/><stop style="stop-color:#5c6dff;stop-opacity:1;" offset="0.132812"/><stop style="stop-color:#5c6dff;stop-opacity:1;" offset="0.140625"/><stop style="stop-color:#5d6dff;stop-opacity:1;" offset="0.148438"/><stop style="stop-color:#5e6cff;stop-opacity:1;" offset="0.15625"/><stop style="stop-color:#5e6cff;stop-opacity:1;" offset="0.164062"/><stop style="stop-color:#5f6cff;stop-opacity:1;" offset="0.171875"/><stop style="stop-color:#5f6cff;stop-opacity:1;" offset="0.179688"/><stop style="stop-color:#606bff;stop-opacity:1;" offset="0.1875"/><stop style="stop-color:#616bff;stop-opacity:1;" offset="0.195312"/><stop style="stop-color:#616bff;stop-opacity:1;" offset="0.203125"/><stop style="stop-color:#626bff;stop-opacity:1;" offset="0.210938"/><stop style="stop-color:#626aff;stop-opacity:1;" offset="0.21875"/><stop style="stop-color:#636aff;stop-opacity:1;" offset="0.226562"/><stop style="stop-color:#646aff;stop-opacity:1;" offset="0.234375"/><stop style="stop-color:#646aff;stop-opacity:1;" offset="0.242188"/><stop style="stop-color:#6569ff;stop-opacity:1;" offset="0.25"/><stop style="stop-color:#6569ff;stop-opacity:1;" offset="0.257812"/><stop style="stop-color:#6669ff;stop-opacity:1;" offset="0.265625"/><stop style="stop-color:#6769ff;stop-opacity:1;" offset="0.273438"/><stop style="stop-color:#6768ff;stop-opacity:1;" offset="0.28125"/><stop style="stop-color:#6868ff;stop-opacity:1;" offset="0.289062"/><stop style="stop-color:#6868ff;stop-opacity:1;" offset="0.296875"/><stop style="stop-color:#6968ff;stop-opacity:1;" offset="0.304688"/><stop style="stop-color:#6a67ff;stop-opacity:1;" offset="0.3125"/><stop style="stop-color:#6a67ff;stop-opacity:1;" offset="0.320312"/><stop style="stop-color:#6b67ff;stop-opacity:1;" offset="0.328125"/><stop style="stop-color:#6b67ff;stop-opacity:1;" offset="0.335938"/><stop style="stop-color:#6c66ff;stop-opacity:1;" offset="0.34375"/><stop style="stop-color:#6d66ff;stop-opacity:1;" offset="0.351562"/><stop style="stop-color:#6d66ff;stop-opacity:1;" offset="0.359375"/><stop style="stop-color:#6e66ff;stop-opacity:1;" offset="0.367188"/><stop style="stop-color:#6e66ff;stop-opacity:1;" offset="0.375"/><stop style="stop-color:#6f65ff;stop-opacity:1;" offset="0.382812"/><stop style="stop-color:#6f65ff;stop-opacity:1;" offset="0.390625"/><stop style="stop-color:#7065ff;stop-opacity:1;" offset="0.398438"/><stop style="stop-color:#7165ff;stop-opacity:1;" offset="0.40625"/><stop style="stop-color:#7164ff;stop-opacity:1;" offset="0.414062"/><stop style="stop-color:#7264ff;stop-opacity:1;" offset="0.421875"/><stop style="stop-color:#7264ff;stop-opacity:1;" offset="0.429688"/><stop style="stop-color:#7364ff;stop-opacity:1;" offset="0.4375"/><stop style="stop-color:#7463ff;stop-opacity:1;" offset="0.445312"/><stop style="stop-color:#7463ff;stop-opacity:1;" offset="0.453125"/><stop style="stop-color:#7563ff;stop-opacity:1;" offset="0.460937"/><stop style="stop-color:#7563ff;stop-opacity:1;" offset="0.46875"/><stop style="stop-color:#7662ff;stop-opacity:1;" offset="0.476562"/><stop style="stop-color:#7762ff;stop-opacity:1;" offset="0.484375"/><stop style="stop-color:#7762ff;stop-opacity:1;" offset="0.492188"/><stop style="stop-color:#7862ff;stop-opacity:1;" offset="0.5"/><stop style="stop-color:#7861ff;stop-opacity:1;" offset="0.507812"/><stop style="stop-color:#7961ff;stop-opacity:1;" offset="0.515625"/><stop style="stop-color:#7a61ff;stop-opacity:1;" offset="0.523438"/><stop style="stop-color:#7a61ff;stop-opacity:1;" offset="0.53125"/><stop style="stop-color:#7b60ff;stop-opacity:1;" offset="0.539062"/><stop style="stop-color:#7b60ff;stop-opacity:1;" offset="0.546875"/><stop style="stop-color:#7c60ff;stop-opacity:1;" offset="0.554688"/><stop style="stop-color:#7d60ff;stop-opacity:1;" offset="0.5625"/><stop style="stop-color:#7d5fff;stop-opacity:1;" offset="0.570313"/><stop style="stop-color:#7e5fff;stop-opacity:1;" offset="0.578125"/><stop style="stop-color:#7e5fff;stop-opacity:1;" offset="0.585938"/><stop style="stop-color:#7f5fff;stop-opacity:1;" offset="0.59375"/><stop style="stop-color:#805fff;stop-opacity:1;" offset="0.601562"/><stop style="stop-color:#805eff;stop-opacity:1;" offset="0.609375"/><stop style="stop-color:#815eff;stop-opacity:1;" offset="0.617188"/><stop style="stop-color:#815eff;stop-opacity:1;" offset="0.625"/><stop style="stop-color:#825eff;stop-opacity:1;" offset="0.632812"/><stop style="stop-color:#825dff;stop-opacity:1;" offset="0.640625"/><stop style="stop-color:#835dff;stop-opacity:1;" offset="0.648438"/><stop style="stop-color:#845dff;stop-opacity:1;" offset="0.65625"/><stop style="stop-color:#845dff;stop-opacity:1;" offset="0.664062"/><stop style="stop-color:#855cff;stop-opacity:1;" offset="0.671875"/><stop style="stop-color:#855cff;stop-opacity:1;" offset="0.679688"/><stop style="stop-color:#865cff;stop-opacity:1;" offset="0.6875"/><stop style="stop-color:#875cff;stop-opacity:1;" offset="0.695312"/><stop style="stop-color:#875bff;stop-opacity:1;" offset="0.703125"/><stop style="stop-color:#885bff;stop-opacity:1;" offset="0.710938"/><stop style="stop-color:#885bff;stop-opacity:1;" offset="0.71875"/><stop style="stop-color:#895bff;stop-opacity:1;" offset="0.726562"/><stop style="stop-color:#8a5aff;stop-opacity:1;" offset="0.734375"/><stop style="stop-color:#8a5aff;stop-opacity:1;" offset="0.742188"/><stop style="stop-color:#8b5aff;stop-opacity:1;" offset="0.75"/><stop style="stop-color:#8b5aff;stop-opacity:1;" offset="0.757812"/><stop style="stop-color:#8c59ff;stop-opacity:1;" offset="0.765625"/><stop style="stop-color:#8d59ff;stop-opacity:1;" offset="0.773438"/><stop style="stop-color:#8d59ff;stop-opacity:1;" offset="0.78125"/><stop style="stop-color:#8e59ff;stop-opacity:1;" offset="0.789062"/><stop style="stop-color:#8e58ff;stop-opacity:1;" offset="0.796875"/><stop style="stop-color:#8f58ff;stop-opacity:1;" offset="0.804687"/><stop style="stop-color:#9058ff;stop-opacity:1;" offset="0.8125"/><stop style="stop-color:#9058ff;stop-opacity:1;" offset="0.820312"/><stop style="stop-color:#9158ff;stop-opacity:1;" offset="0.828125"/><stop style="stop-color:#9157ff;stop-opacity:1;" offset="0.835938"/><stop style="stop-color:#9257ff;stop-opacity:1;" offset="0.84375"/><stop style="stop-color:#9357ff;stop-opacity:1;" offset="0.851562"/><stop style="stop-color:#9357ff;stop-opacity:1;" offset="0.859375"/><stop style="stop-color:#9456ff;stop-opacity:1;" offset="0.867188"/><stop style="stop-color:#9456ff;stop-opacity:1;" offset="0.875"/><stop style="stop-color:#9556ff;stop-opacity:1;" offset="0.882812"/><stop style="stop-color:#9556ff;stop-opacity:1;" offset="0.890625"/><stop style="stop-color:#9655ff;stop-opacity:1;" offset="0.898437"/><stop style="stop-color:#9755ff;stop-opacity:1;" offset="0.90625"/><stop style="stop-color:#9755ff;stop-opacity:1;" offset="0.914062"/><stop style="stop-color:#9855ff;stop-opacity:1;" offset="0.921875"/><stop style="stop-color:#9854ff;stop-opacity:1;" offset="0.929688"/><stop style="stop-color:#9954ff;stop-opacity:1;" offset="0.9375"/><stop style="stop-color:#9a54ff;stop-opacity:1;" offset="0.945312"/><stop style="stop-color:#9a54ff;stop-opacity:1;" offset="0.953125"/><stop style="stop-color:#9b53ff;stop-opacity:1;" offset="0.960938"/><stop style="stop-color:#9b53ff;stop-opacity:1;" offset="0.96875"/><stop style="stop-color:#9c53ff;stop-opacity:1;" offset="0.976562"/><stop style="stop-color:#9d53ff;stop-opacity:1;" offset="0.984375"/><stop style="stop-color:#9d52ff;stop-opacity:1;" offset="0.992188"/><stop style="stop-color:#9e52ff;stop-opacity:1;" offset="1"/></linearGradient><clipPath id="60f1a1dba1"><path d="M 75.46875 57 L 166 57 L 166 147.453125 L 75.46875 147.453125 Z M 75.46875 57 "/></clipPath><clipPath id="e5fc13d528"><path d="M 141 51.453125 L 172 51.453125 L 172 82 L 141 82 Z M 141 51.453125 "/></clipPath><clipPath id="fc70a0d004"><path d="M 75.46875 99.484375 L 299.71875 99.484375 L 299.71875 323.734375 L 75.46875 323.734375 Z M 75.46875 99.484375 "/></clipPath></defs><g id="d092f36c1b"><g clip-rule="nonzero" clip-path="url(#6244d82f99)"><rect x="0" width="375" y="0" height="374.999991" style="fill:url(#04a996dac8);stroke:none;"/></g><g clip-rule="nonzero" clip-path="url(#60f1a1dba1)"><path style=" stroke:none;fill-rule:nonzero;fill:#ffffff;fill-opacity:1;" d="M 121.214844 58.164062 L 122.347656 68.367188 C 124.21875 85.316406 137.597656 98.691406 154.542969 100.566406 L 164.75 101.695312 C 165.578125 101.789062 165.578125 102.992188 164.75 103.082031 L 154.542969 104.210938 C 137.597656 106.085938 124.21875 119.464844 122.347656 136.410156 L 121.214844 146.617188 C 121.125 147.445312 119.921875 147.445312 119.828125 146.617188 L 118.699219 136.410156 C 116.824219 119.464844 103.445312 106.085938 86.503906 104.210938 L 76.296875 103.082031 C 75.46875 102.992188 75.46875 101.789062 76.296875 101.695312 L 86.503906 100.566406 C 103.449219 98.691406 116.824219 85.3125 118.699219 68.367188 L 119.828125 58.164062 C 119.921875 57.335938 121.125 57.335938 121.214844 58.164062 Z M 121.214844 58.164062 "/></g><path style=" stroke:none;fill-rule:nonzero;fill:#ffffff;fill-opacity:1;" d="M 148.664062 123.507812 C 149.113281 127.390625 152.195312 130.445312 156.085938 130.851562 L 156.246094 130.871094 C 156.660156 130.914062 156.660156 131.515625 156.246094 131.5625 L 156.085938 131.578125 C 152.195312 131.988281 149.113281 135.039062 148.664062 138.921875 C 148.617188 139.332031 148.019531 139.332031 147.972656 138.921875 C 147.523438 135.039062 144.441406 131.988281 140.550781 131.578125 L 140.390625 131.5625 C 139.976562 131.515625 139.976562 130.914062 140.390625 130.871094 L 140.550781 130.851562 C 144.441406 130.445312 147.523438 127.390625 147.972656 123.507812 C 148.019531 123.101562 148.617188 123.101562 148.664062 123.507812 Z M 148.664062 123.507812 "/><g clip-rule="nonzero" clip-path="url(#e5fc13d528)"><path style=" stroke:none;fill-rule:nonzero;fill:#ffffff;fill-opacity:1;" d="M 157.378906 52.070312 L 157.699219 54.96875 C 158.324219 60.617188 162.789062 65.078125 168.441406 65.703125 L 171.351562 66.023438 C 171.949219 66.089844 171.949219 66.960938 171.351562 67.027344 L 168.441406 67.347656 C 162.789062 67.972656 158.328125 72.433594 157.699219 78.082031 L 157.378906 80.984375 C 157.3125 81.582031 156.441406 81.582031 156.375 80.984375 L 156.054688 78.082031 C 155.429688 72.433594 150.964844 67.972656 145.316406 67.347656 L 142.402344 67.027344 C 141.804688 66.960938 141.804688 66.089844 142.402344 66.023438 L 145.316406 65.703125 C 150.964844 65.078125 155.429688 60.617188 156.054688 54.96875 L 156.375 52.070312 C 156.441406 51.46875 157.3125 51.46875 157.378906 52.070312 Z M 157.378906 52.070312 "/></g><g clip-rule="nonzero" clip-path="url(#fc70a0d004)"><path style=" stroke:none;fill-rule:nonzero;fill:#ffffff;fill-opacity:1;" d="M 274.433594 99.484375 C 237.191406 99.484375 187.21875 125.035156 153.664062 168.960938 L 125.84375 168.960938 C 105.742188 168.960938 94.222656 183.964844 86.289062 199.832031 L 75.671875 221.070312 L 125.84375 221.070312 L 151.898438 247.121094 L 177.953125 273.175781 L 177.953125 323.351562 L 199.191406 312.734375 C 215.054688 304.796875 230.058594 293.277344 230.058594 273.175781 L 230.058594 245.359375 C 273.988281 211.800781 299.535156 161.828125 299.535156 124.589844 L 299.535156 99.484375 Z M 230.058594 151.59375 C 239.652344 151.59375 247.429688 159.367188 247.429688 168.960938 C 247.429688 178.554688 239.652344 186.332031 230.058594 186.332031 C 220.464844 186.332031 212.691406 178.554688 212.691406 168.960938 C 212.691406 159.367188 220.464844 151.59375 230.058594 151.59375 Z M 117.160156 255.808594 L 108.476562 264.492188 C 95.929688 277.035156 91.105469 307.914062 91.105469 307.914062 C 91.105469 307.914062 120.597656 304.476562 134.527344 290.546875 L 143.214844 281.859375 Z M 117.160156 255.808594 "/></g></g></svg>