<svg xmlns="http://www.w3.org/2000/svg" xmlns:xlink="http://www.w3.org/1999/xlink" width="500" zoomAndPan="magnify" viewBox="0 0 375 374.999991" height="500" preserveAspectRatio="xMidYMid meet" version="1.2"><defs><clipPath id="a6636a27b7"><path d="M 42.75 0 L 332.25 0 C 355.859375 0 375 19.140625 375 42.75 L 375 332.25 C 375 355.859375 355.859375 375 332.25 375 L 42.75 375 C 19.140625 375 0 355.859375 0 332.25 L 0 42.75 C 0 19.140625 19.140625 0 42.75 0 Z M 42.75 0 "/></clipPath><clipPath id="35e3e31f9e"><path d="M 42.660156 162.726562 L 319.679688 162.726562 L 319.679688 215.6875 L 42.660156 215.6875 Z M 42.660156 162.726562 "/></clipPath><clipPath id="03ed131b84"><path d="M 69.144531 162.726562 L 293.160156 162.726562 C 300.183594 162.726562 306.917969 165.515625 311.882812 170.484375 C 316.851562 175.449219 319.640625 182.183594 319.640625 189.207031 C 319.640625 196.230469 316.851562 202.96875 311.882812 207.933594 C 306.917969 212.898438 300.183594 215.6875 293.160156 215.6875 L 69.144531 215.6875 C 62.121094 215.6875 55.382812 212.898438 50.417969 207.933594 C 45.453125 202.96875 42.660156 196.230469 42.660156 189.207031 C 42.660156 182.183594 45.453125 175.449219 50.417969 170.484375 C 55.382812 165.515625 62.121094 162.726562 69.144531 162.726562 Z M 69.144531 162.726562 "/></clipPath><clipPath id="19ae876bde"><path d="M 115.609375 89.773438 L 375 89.773438 L 375 142.734375 L 115.609375 142.734375 Z M 115.609375 89.773438 "/></clipPath><clipPath id="90f029705c"><path d="M 142.089844 89.773438 L 370.523438 89.773438 C 377.546875 89.773438 384.28125 92.5625 389.25 97.527344 C 394.214844 102.492188 397.003906 109.230469 397.003906 116.253906 C 397.003906 123.277344 394.214844 130.011719 389.25 134.976562 C 384.28125 139.945312 377.546875 142.734375 370.523438 142.734375 L 142.089844 142.734375 C 135.070312 142.734375 128.332031 139.945312 123.367188 134.976562 C 118.402344 130.011719 115.609375 123.277344 115.609375 116.253906 C 115.609375 109.230469 118.402344 102.492188 123.367188 97.527344 C 128.332031 92.5625 135.070312 89.773438 142.089844 89.773438 Z M 142.089844 89.773438 "/></clipPath><clipPath id="c57e48d199"><path d="M 0 235.027344 L 257.324219 235.027344 L 257.324219 287.425781 L 0 287.425781 Z M 0 235.027344 "/></clipPath><clipPath id="2921a85328"><path d="M 6.390625 235.027344 L 230.972656 235.027344 C 237.917969 235.027344 244.582031 237.789062 249.496094 242.699219 C 254.410156 247.613281 257.171875 254.277344 257.171875 261.226562 C 257.171875 268.175781 254.410156 274.839844 249.496094 279.75 C 244.582031 284.664062 237.917969 287.425781 230.972656 287.425781 L 6.390625 287.425781 C -0.558594 287.425781 -7.222656 284.664062 -12.136719 279.75 C -17.046875 274.839844 -19.808594 268.175781 -19.808594 261.226562 C -19.808594 254.277344 -17.046875 247.613281 -12.136719 242.699219 C -7.222656 237.789062 -0.558594 235.027344 6.390625 235.027344 Z M 6.390625 235.027344 "/></clipPath></defs><g id="77da118ff6"><g clip-rule="nonzero" clip-path="url(#a6636a27b7)"><rect x="0" width="375" y="0" height="374.999991" style="fill:#000000;fill-opacity:1;stroke:none;"/></g><g clip-rule="nonzero" clip-path="url(#35e3e31f9e)"><g clip-rule="nonzero" clip-path="url(#03ed131b84)"><path style=" stroke:none;fill-rule:nonzero;fill:#ffffff;fill-opacity:1;" d="M 42.660156 162.726562 L 319.679688 162.726562 L 319.679688 215.6875 L 42.660156 215.6875 Z M 42.660156 162.726562 "/></g></g><g clip-rule="nonzero" clip-path="url(#19ae876bde)"><g clip-rule="nonzero" clip-path="url(#90f029705c)"><path style=" stroke:none;fill-rule:nonzero;fill:#ffffff;fill-opacity:1;" d="M 115.609375 89.773438 L 396.972656 89.773438 L 396.972656 142.734375 L 115.609375 142.734375 Z M 115.609375 89.773438 "/></g></g><g clip-rule="nonzero" clip-path="url(#c57e48d199)"><g clip-rule="nonzero" clip-path="url(#2921a85328)"><path style=" stroke:none;fill-rule:nonzero;fill:#ffffff;fill-opacity:1;" d="M -19.808594 235.027344 L 257.117188 235.027344 L 257.117188 287.425781 L -19.808594 287.425781 Z M -19.808594 235.027344 "/></g></g></g></svg>